<?xml version="1.0" encoding="UTF-8"?>
<svg id="OBJECTS" xmlns="http://www.w3.org/2000/svg" viewBox="0 0 768.17 228.51">
  <defs>
    <style>
      .cls-1 {
        fill: #fff;
      }

      .cls-1, .cls-2 {
        fill-rule: evenodd;
      }

      .cls-2 {
        fill: #231f20;
      }
    </style>
  </defs>
  <path class="cls-2" d="m747.68,61.58c.09-1.26,7.84-12.06,7.93-15.85.09-3.79-9.17-1.99-15.1-1.65-5.93.34-17.06.93-22.72.3-6.22-.69-127.22-32.37-169.57-37.6-42.35-5.23-112.41-10.29-146.56-3.54-34.16,6.74-138.98,51.26-141.68,53.03-2.7,1.77-2.96,1.77-2.96,1.77,0,0-92.71,7.25-126.52,12.81-33.81,5.56-93.41,27.9-109.36,35.49-15.95,7.59-15.3,9.58-16.26,11.78-.96,2.19-2.65,20.6-3.96,27.26-1.31,6.66-1.31,17.45.61,22.26,1.92,4.81,2.87,3.29,4.27,6.41,1.39,3.12,3.4,11.72,2,12.14-1.39.42-2.6,2.86-1.03,5.48,1.57,2.61,27.7,9.61,35.89,10.37,8.19.76,12.03,1.01,12.03,1.01,0,0,8.91.53,10.48.53s16.53.23,16.53.23l154.76-2.53s311.08-1.01,313-2.87c1.92-1.85,2.61-4.72,2.61-4.72l11.85-1.01,133.49-12.65s.35,7.42,1.39,6.58c1.05-.84,46.53-12.48,50.89-15.68,4.36-3.2,4.18-1.52,4.71-4.89.52-3.37.17-4.55,1.39-5.56,1.22-1.01,12.11-24.36,12.37-36.67.26-12.31-2.61-26.89-3.83-28.92-1.22-2.02-6.45-7.17-6.45-7.17,0,0-3.66-14.33-6.19-19.31-2.53-4.97-4.01-6.83-4.01-6.83Z"/>
  <path class="cls-1" d="m36.26,117.03c-3.27,3.04-26.81,2.47-27.97.46-2.26-3.92,42.02-23.11,48.78-19.84,3.86,1.87-20.22,18.83-20.81,19.38Z"/>
  <path class="cls-1" d="m283.8,67.89s67.27-36.76,101.08-44.68c33.81-7.92,100.03-7.17,109.27-6.32,9.24.84,16.21,2.44,16.21,2.44l-12.03,34.9s-195.45,13.07-202.59,13.24-11.94.42-11.94.42Z"/>
  <path class="cls-1" d="m518.98,20.68l-7.93,32.46s38.86-2.95,44.79-5.4c5.93-2.45,13.68-13.07,13.68-14.67s-50.54-12.39-50.54-12.39Z"/>
  <path class="cls-1" d="m747.56,68.53c-2.53-4.97-4.01-6.83-4.01-6.83,0,0-9.26.76-19.8,1.83-11.03,1.13-6.8,10.75-5.82,14.31.92,3.36,2.03,8.96,7.18,10.9,5.14,1.94,28.64-.91,28.64-.91,0,0-3.66-14.33-6.19-19.31Z"/>
  <g>
    <path class="cls-2" d="m83.82,210.78c24.85,23.81,64.95,23.62,89.56-.43,24.61-24.05,24.41-62.84-.45-86.65-24.85-23.81-64.95-23.62-89.56.43-24.61,24.05-24.41,62.84.44,86.65h0Zm77.34-12.14h0c-17.93,17.51-47.13,17.66-65.24.31-18.1-17.34-18.25-45.6-.33-63.12,17.93-17.52,47.13-17.66,65.24-.31,18.1,17.34,18.25,45.6.32,63.11Z"/>
    <path class="cls-1" d="m128.11,114.96c29.84-.14,54.15,23.15,54.3,52.01.15,28.87-23.92,52.39-53.76,52.53-29.84.14-54.15-23.15-54.3-52.01-.15-28.87,23.92-52.39,53.76-52.53Z"/>
    <path class="cls-2" d="m128.14,121.18c-26.29.13-47.5,20.85-47.37,46.28.13,25.44,21.55,45.95,47.84,45.83,26.29-.13,47.5-20.84,47.37-46.28-.13-25.44-21.55-45.95-47.84-45.83Z"/>
    <path class="cls-2" d="m137.92,179.61c6.44-6.29,6.38-16.44-.12-22.66-6.5-6.23-16.99-6.18-23.42.11-6.44,6.29-6.38,16.43.12,22.66,6.5,6.23,16.99,6.17,23.42-.11Z"/>
    <path class="cls-1" d="m123,217.76l-3.01-34.85-27.36,22.85-4.83-4.63,23.34-26.7-36.04-2.56-.04-6.58,36.02-2.91-23.61-26.47,4.78-4.68,27.6,22.58,2.65-34.88,6.8-.03,3.01,34.85,27.36-22.85,4.83,4.63-23.34,26.7,36.05,2.56.03,6.58-36.02,2.91,23.61,26.47-4.79,4.68-27.6-22.58-2.65,34.87-6.8.03h0Zm-.03-41.89h0l6.44-.03,4.53-4.42-.03-6.23-4.57-4.38-6.44.03-4.53,4.43.03,6.23,4.58,4.39Z"/>
  </g>
  <g>
    <path class="cls-2" d="m578.65,210.78c24.85,23.81,64.95,23.62,89.56-.43,24.61-24.05,24.41-62.84-.45-86.65-24.85-23.81-64.95-23.62-89.56.43-24.61,24.05-24.41,62.84.44,86.65h0Zm77.34-12.14h0c-17.93,17.51-47.13,17.66-65.24.31-18.1-17.34-18.25-45.6-.33-63.12,17.93-17.52,47.13-17.66,65.24-.31,18.1,17.34,18.25,45.6.32,63.11Z"/>
    <path class="cls-1" d="m622.94,114.96c29.84-.14,54.15,23.15,54.3,52.01.15,28.87-23.92,52.39-53.76,52.53-29.84.14-54.15-23.15-54.3-52.01-.15-28.87,23.92-52.39,53.76-52.53Z"/>
    <path class="cls-2" d="m622.97,121.18c-26.29.13-47.5,20.85-47.37,46.28.13,25.44,21.55,45.95,47.84,45.83,26.29-.13,47.5-20.84,47.37-46.28-.13-25.44-21.55-45.95-47.84-45.83Z"/>
    <path class="cls-2" d="m632.75,179.61c6.44-6.29,6.38-16.44-.12-22.66-6.5-6.23-16.99-6.18-23.42.11-6.44,6.29-6.38,16.43.12,22.66,6.5,6.23,16.99,6.17,23.42-.11Z"/>
    <path class="cls-1" d="m617.83,217.76l-3.01-34.85-27.36,22.85-4.83-4.63,23.34-26.7-36.04-2.56-.04-6.58,36.02-2.91-23.61-26.47,4.78-4.68,27.6,22.58,2.65-34.88,6.8-.03,3.01,34.85,27.36-22.85,4.83,4.63-23.34,26.7,36.05,2.56.03,6.58-36.02,2.91,23.61,26.47-4.79,4.68-27.6-22.58-2.65,34.87-6.8.03h0Zm-.03-41.89h0l6.44-.03,4.53-4.42-.03-6.23-4.57-4.38-6.44.03-4.53,4.43.03,6.23,4.58,4.39Z"/>
  </g>
  <path class="cls-2" d="m253.83,73.66c1.05-.34,6.71-2.36,17.34-5.48,10.63-3.12,15.07-3.2,15.07-3.2,0,0,0-6.32,3.57-9.44s14.64-5.82,20.13-6.49c11.84-1.45,12.19,14.99,10.54,17.37-.87,1.26-9.59,4.55-13.94,5.39-4.36.84-12.98-.76-13.94-.84s-38.78,2.7-38.78,2.7Z"/>
</svg>